<?xml version="1.0" encoding="utf-8"?>
<!-- Svg Vector Icons : http://www.onlinewebfonts.com/icon -->
<!DOCTYPE svg PUBLIC "-//W3C//DTD SVG 1.1//EN" "http://www.w3.org/Graphics/SVG/1.1/DTD/svg11.dtd">
<svg version="1.1" xmlns="http://www.w3.org/2000/svg" xmlns:xlink="http://www.w3.org/1999/xlink" x="0px" y="0px" viewBox="0 0 256 256" enable-background="new 0 0 256 256" xml:space="preserve">
<metadata> Svg Vector Icons : http://www.onlinewebfonts.com/icon </metadata>
<g><g><g><path fill="#000000" d="M122,32.6c-1.6,0.4-4.8,1.5-6.9,2.6c-5.5,2.6-10.3,7.5-12.9,13c-2.4,5-3,7.8-3,13.1c0,4.8,0.9,8.4,2.9,12.3l1.4,2.8H81.9c-14.1,0-22,0.2-22.9,0.5c-3.4,1.3-2.3-1.7-26.6,71.3C8,221.3,8.9,218.4,11,221.2c0.5,0.6,1.5,1.5,2.4,1.9c1.5,0.8,5.5,0.9,114.6,0.9c109.1,0,113.1,0,114.6-0.9c0.9-0.5,1.9-1.3,2.4-1.9c2.1-2.8,3,0.1-21.4-72.9c-24.3-73-23.2-70.1-26.6-71.3c-0.9-0.3-8.8-0.5-22.9-0.5h-21.5l1.3-2.7c2-3.9,2.9-8,2.9-12.9c0-5.2-0.6-7.8-2.9-12.6c-3.3-6.9-9.5-12.3-17-14.8C132.5,32,126.3,31.6,122,32.6z M134.7,46.9c3.3,1.6,6.9,5.5,8,8.7c1,2.8,1.1,7.1,0.3,9.9c-1.3,4.5-5.5,8.7-10.3,10.2c-3.3,1-8.3,0.7-11.4-0.8c-9.1-4.3-11.7-16.7-5.1-24c3.8-4.2,7.3-5.7,12.6-5.4C131.2,45.6,132.8,46,134.7,46.9z M210.1,149.9c11,32.9,20,60.1,20,60.3c0,0.2-45.9,0.3-102.1,0.3c-56.2,0-102.1-0.1-102.1-0.3c0-0.2,9-27.4,20-60.3l20-60H128h62.1L210.1,149.9z"/><path fill="#000000" d="M148.7,123.3c-14.5,3.1-23.4,14.8-22.4,29.7c0.7,11.8,6.9,20,17.6,23.5c3.5,1.2,4.4,1.3,11.6,1.3c8,0,13.4-0.7,17.3-2.3l1.5-0.6l-0.1-14.1l-0.1-14.1h-10h-10v4.4v4.4l3.9,0.2l3.9,0.2v5.8v5.8l-2.6,0.4c-5.4,0.9-12.1-1.1-15.6-4.7c-4.4-4.5-6-13.3-3.7-20.1c3-8.9,13.7-12.7,26.4-9.5c1.7,0.5,3.2,0.7,3.4,0.6c0.5-0.5,2.4-8.6,2.1-9.1c-0.5-0.8-3.9-1.8-7.7-2.3C159.3,122.1,153.4,122.3,148.7,123.3z"/><path fill="#000000" d="M81.8,123.4c-0.1,0.3-0.2,12.6-0.1,27.3l0.1,26.7h5.8h5.8l0.2-8.9l0.2-8.9l2.3-2.6c1.3-1.5,2.4-2.5,2.6-2.3c0.2,0.2,3,5.1,6.3,10.8c3.2,5.8,6.2,10.8,6.6,11.2c0.6,0.7,1.6,0.8,7.4,0.8c6.2,0,6.7,0,6.5-0.8c-0.1-0.4-4.3-7.4-9.1-15.5c-4.9-8.1-8.9-15-8.7-15.3c0.1-0.3,4-5.4,8.6-11.4c4.6-5.9,8.4-11,8.4-11.2c0-0.6-13.2-0.6-14.3,0c-0.5,0.3-4.4,5.7-8.7,12.2L93.9,147l-0.2-12l-0.2-12l-5.7-0.1C83.5,122.8,82,123,81.8,123.4z"/></g></g></g>
</svg>